<svg width="132" height="132" viewBox="0 0 132 132" fill="none" xmlns="http://www.w3.org/2000/svg">
<g filter="url(#filter0_i)">
<circle cx="66" cy="66" r="66" fill="white"/>
</g>
<path d="M53.5 53.5H78.5" stroke="black" stroke-width="2" stroke-linecap="round" stroke-linejoin="round"/>
<path d="M53.5 66H78.5" stroke="black" stroke-width="2" stroke-linecap="round" stroke-linejoin="round"/>
<path d="M53.5 78.5H66" stroke="black" stroke-width="2" stroke-linecap="round" stroke-linejoin="round"/>
<path d="M77.2056 100.375H34.75C33.9212 100.375 33.1263 100.046 32.5403 99.4597C31.9542 98.8737 31.625 98.0788 31.625 97.25V34.75C31.625 33.9212 31.9542 33.1263 32.5403 32.5403C33.1263 31.9542 33.9212 31.625 34.75 31.625H97.25C98.0788 31.625 98.8737 31.9542 99.4597 32.5403C100.046 33.1263 100.375 33.9212 100.375 34.75V77.2056C100.375 77.616 100.294 78.0223 100.137 78.4015C99.9801 78.7806 99.7499 79.1251 99.4597 79.4153L79.4153 99.4597C79.1251 99.7499 78.7806 99.9801 78.4015 100.137C78.0223 100.294 77.616 100.375 77.2056 100.375V100.375Z" stroke="black" stroke-width="2" stroke-linecap="round" stroke-linejoin="round"/>
<path d="M100.092 78.4969H78.5V100.091" stroke="black" stroke-width="2" stroke-linecap="round" stroke-linejoin="round"/>
<defs>
<filter id="filter0_i" x="0" y="0" width="139" height="136" filterUnits="userSpaceOnUse" color-interpolation-filters="sRGB">
<feFlood flood-opacity="0" result="BackgroundImageFix"/>
<feBlend mode="normal" in="SourceGraphic" in2="BackgroundImageFix" result="shape"/>
<feColorMatrix in="SourceAlpha" type="matrix" values="0 0 0 0 0 0 0 0 0 0 0 0 0 0 0 0 0 0 127 0" result="hardAlpha"/>
<feOffset dx="7" dy="4"/>
<feGaussianBlur stdDeviation="4"/>
<feComposite in2="hardAlpha" operator="arithmetic" k2="-1" k3="1"/>
<feColorMatrix type="matrix" values="0 0 0 0 0 0 0 0 0 0 0 0 0 0 0 0 0 0 0.25 0"/>
<feBlend mode="normal" in2="shape" result="effect1_innerShadow"/>
</filter>
</defs>
</svg>
